<svg width="288" height="192" viewBox="0 0 288 192" fill="none" xmlns="http://www.w3.org/2000/svg">
<path d="M252.125 96.9998C252.13 121.826 252.142 146.152 252.149 170.479C252.152 178.21 251.213 179.23 243.63 179.234C219.97 179.245 196.309 179.277 172.649 179.125C168.105 179.096 164.279 180.227 160.549 182.841C151.535 189.159 144.169 189.287 135.17 182.996C130.956 180.05 126.673 179.004 121.64 179.05C98.1476 179.265 74.6533 179.262 51.1597 179.291C44.6506 179.3 43.7602 178.344 43.7568 171.677C43.7361 132.187 43.7265 92.6974 43.7246 53.2075C43.7243 46.2404 44.0194 45.7802 50.7839 45.1116C53.6412 44.8292 55.2216 43.8092 54.9772 40.8501C54.5505 35.6849 56.9108 33.2903 62.0111 33.7871C65.8667 34.1626 66.8258 32.3735 66.8071 28.8173C66.7757 22.8507 67.678 22.021 73.4507 22.3259C82.7474 22.8169 92.0712 23.2152 101.135 25.679C102.257 25.9841 103.404 26.2358 104.483 26.6569C106.268 27.3535 108.054 28.3184 107.194 30.6392C106.448 32.6517 104.713 33.093 102.653 32.5678C95.39 30.7163 88.0717 29.2493 80.5716 28.6022C73.4446 27.9874 73.1883 27.9494 73.1839 35.14C73.1619 70.7968 73.2485 106.454 73.1324 142.11C73.1186 146.364 74.3281 147.874 78.7766 147.947C100.495 148.301 120.925 153.562 139.621 164.912C140.849 165.658 141.975 166.871 144.015 166.161C145.554 162.16 144.327 157.81 144.737 153.597C144.959 151.313 143.816 147.896 147.787 148.061C151.039 148.196 150.603 151.06 150.653 153.425C150.744 157.732 151.006 162.036 151.191 166.211C153.011 167.125 153.941 165.838 154.996 165.21C174.334 153.699 195.281 147.911 217.748 147.86C221.873 147.85 222.795 146.282 222.786 142.545C222.703 106.221 222.699 69.8972 222.835 33.5737C222.851 29.3721 221.418 27.8797 217.318 28.3063C209.52 29.1178 201.811 30.3736 194.267 32.5042C191.628 33.2495 188.909 33.6707 188.096 30.4799C187.246 27.1472 190.417 27.0592 192.567 26.4734C202.579 23.7449 212.826 22.7046 223.158 22.2199C226.875 22.0455 228.419 23.9702 228.323 27.3326C228.186 32.114 229.964 34.4468 235.092 33.9518C238.487 33.6242 240.505 35.5014 240.28 39.0693C240.022 43.1515 241.351 45.4073 245.884 45.14C250.618 44.8608 252.201 47.4938 252.16 52.0144C252.027 66.8417 252.122 81.6712 252.125 96.9998ZM188.032 167.611C178.782 168.878 169.715 171.03 160.695 173.369C151.976 175.629 143.449 175.778 134.59 173.43C120.928 169.811 107.15 166.465 92.884 166.009C82.5456 165.679 72.2353 165.888 61.967 167.199C57.6169 167.754 55.224 166.362 55.565 161.537C55.7758 158.554 55.6315 155.544 55.6234 152.547C55.5364 120.397 55.4287 88.2469 55.3841 56.0969C55.3805 53.4709 54.4262 51.6199 51.763 51.8468C48.8994 52.0908 49.5585 54.6868 49.5588 56.5824C49.5614 77.3702 49.2714 98.1651 49.7288 118.943C50.0771 134.767 49.3275 150.566 49.5271 166.379C49.5868 171.11 51.1043 173.021 56.288 172.942C77.9456 172.61 99.6128 172.912 121.271 172.599C127.787 172.504 133.303 174.241 138.544 177.88C145.775 182.902 149.911 183.143 156.765 178.06C162.32 173.941 168.213 172.575 174.973 172.654C196.466 172.902 217.964 172.705 239.457 172.954C244.052 173.008 245.925 171.972 245.907 166.941C245.78 130.118 245.92 93.2937 245.967 56.4697C245.968 55.6399 245.918 54.8031 245.804 53.9816C245.592 52.4468 244.688 51.5962 243.117 51.5952C241.534 51.5941 240.6 52.4586 240.479 54.0042C240.348 55.6613 240.354 57.3314 240.353 58.9959C240.337 92.9892 240.337 126.982 240.311 160.976C240.306 166.992 239.513 167.809 233.681 167.067C218.728 165.167 203.81 165.074 188.032 167.611ZM194.64 156.219C186.718 158.071 179.027 160.581 171.725 164.279C181.219 162.768 190.664 161.133 200.221 160.205C210.067 159.249 219.878 159.707 229.624 160.93C233.957 161.474 234.669 159.966 234.657 156.168C234.543 119.358 234.58 82.5475 234.517 45.7373C234.513 43.5453 235.035 40.4531 231.578 40.4761C228.377 40.4974 228.975 43.4424 228.969 45.4597C228.941 56.1039 228.663 66.7409 228.787 77.3938C229.059 100.822 228.693 124.257 228.623 147.69C228.606 153.12 227.632 154.173 222.283 154.072C213.282 153.902 204.298 153.937 194.64 156.219ZM91.2941 159.857C102.283 160.918 113.289 161.857 124.085 164.381C109.962 156.883 95.196 153.833 74.8357 154.01C66.8572 154.08 66.7982 154.021 66.7971 145.928C66.7924 112.276 66.7943 78.6253 66.7687 44.9742C66.7671 42.8782 67.2353 40.2655 63.8468 40.3437C60.7436 40.4154 61.2924 42.8703 61.2908 44.7705C61.2578 81.7538 61.2966 118.737 61.1831 155.72C61.1711 159.64 62.4262 161.198 66.3959 160.757C74.347 159.872 82.3323 159.531 91.2941 159.857Z" fill="#818C7B"/>
<path d="M96.2915 50.5738C101.177 45.5172 104.09 39.3288 108.24 34.4527C114.104 27.5629 123.116 23.6364 131.77 21.2111C138.869 19.2215 145.145 26.4681 145.206 34.9605C145.354 55.6038 145.328 76.2484 145.354 96.8924C145.368 108.047 145.367 119.201 145.329 130.356C145.304 137.875 141.78 143.373 135.589 145.712C129.624 147.967 123.87 146.269 118.728 140.559C117.439 139.128 116.02 138.272 114.177 137.755C103.228 134.679 96.5003 128.112 96.6403 116.056C96.6641 114.01 95.6159 112.665 94.1395 111.433C86.3113 104.9 84.65 96.5996 87.2985 87.1136C87.8881 85.0017 88.136 82.8757 87.9102 80.6944C87.2669 74.4791 88.7071 68.8173 92.3173 63.6895C95.009 59.8663 93.5788 54.7929 96.2915 50.5738ZM139.268 81.8573C139.161 77.3757 139.076 72.8934 138.937 68.4128C138.88 66.6012 138.392 64.8311 136.092 65.2999C132.3 66.0729 129.825 68.9024 127.36 71.5992C125.252 73.9055 127.431 75.5371 128.467 77.3015C129.23 78.5997 129.309 79.797 128.197 80.9317C127.067 82.085 125.617 82.1625 124.603 81.1706C121.328 77.9703 117.509 78.5241 113.438 78.6981C108.632 78.9035 104.482 76.5951 100.816 73.4624C99.4808 72.3215 98.611 70.4964 96.4962 70.1982C94.3711 72.8942 93.9854 75.9808 94.4904 79.1763C95.1253 83.1943 97.3548 86.194 100.859 88.2695C102.472 89.225 103.376 90.5165 102.261 92.3962C101.257 94.0881 99.7734 93.6777 98.293 93.1874C96.9164 92.7314 95.7389 91.5444 94.1153 91.9978C92.0215 97.8731 92.954 102.619 98.1103 105.924C102.397 108.671 103.719 111.769 103.093 116.654C102.295 122.88 105.635 127.07 111.067 129.76C114.148 131.286 116.796 131.508 118.404 127.683C119.682 124.644 121.93 122.378 124.873 121.006C127.44 119.811 130.84 118.39 132.541 121.413C134.586 125.05 130.351 125.295 128.395 126.65C128.258 126.744 128.111 126.825 127.962 126.899C124.932 128.404 122.654 130.363 123.234 134.228C123.711 137.412 125.544 139.257 128.593 140.062C132.351 141.054 135.157 139.454 137.263 136.607C139.326 133.819 139.743 130.469 139.519 127.078C138.541 112.275 139.033 97.4648 139.268 81.8573ZM121.192 54.2881C120.628 57.4969 116.498 57.8473 115.819 61.1702C115.503 62.7184 113.81 64.0455 111.946 63.6065C109.739 63.0866 109.486 61.1861 109.686 59.2186C109.77 58.3925 109.882 57.5598 109.857 56.7338C109.778 54.1053 108.378 52.1494 105.961 51.555C103.633 50.9826 102.455 53.0252 101.5 54.8001C100.624 56.4259 100.171 58.1786 100.345 60.0801C100.972 66.9524 107.276 72.2242 114.605 71.959C120.555 71.7437 125.573 66.2757 125.912 59.8361C126.037 57.4838 125.037 54.5087 128.082 53.249C130.995 52.0441 132.031 54.758 133.626 56.3384C135.419 58.1157 138.264 58.8734 138.558 55.8363C139.307 48.0938 139.707 40.2253 138.46 32.4852C137.999 29.6292 135.41 28.2261 132.48 28.0733C130.321 27.9606 128.442 28.7644 127.617 30.8479C126.545 33.5528 127.876 35.6698 129.796 37.4894C130.278 37.9457 130.835 38.3219 131.325 38.7697C132.494 39.8366 133.49 41.0439 132.33 42.6318C131.315 44.0209 129.85 44.0797 128.285 43.5775C125.408 42.6544 123.487 40.6424 122.094 38.098C120.924 35.9616 119.471 34.6267 116.896 35.6664C113.343 37.101 111.002 39.5949 111.209 43.5799C111.396 47.1734 113.16 49.9061 116.907 50.8411C118.645 51.2748 120.681 51.1221 121.192 54.2881Z" fill="#B9A57B"/>
<path d="M202.351 62.5195C206.04 68.1498 208.036 73.8578 207.273 80.3061C206.932 83.1856 207.669 85.9144 208.324 88.6743C210.339 97.16 208.098 104.535 202.042 110.655C200.144 112.573 199.312 114.509 199.056 117.171C198.002 128.12 192.157 134.751 181.366 137.197C178.813 137.776 177.365 139.292 175.801 141.043C171.153 146.248 165.607 147.753 159.661 145.545C153.671 143.321 149.742 137.952 149.733 131.331C149.693 99.1733 149.744 67.0154 149.782 34.8575C149.789 29.0318 152.155 24.3554 157.493 21.883C162.801 19.4245 167.615 21.2363 171.696 25.0126C173.341 26.5349 175.005 27.4899 177.277 27.9218C182.949 29.0001 186.624 32.7026 188.987 37.8373C189.748 39.491 190.13 41.7031 191.424 42.6627C198.057 47.5796 200.879 54.4209 202.351 62.5195ZM155.443 122.666C155.713 126.304 155.643 130.008 156.338 133.562C157.223 138.089 160.788 140.231 165.047 140.438C168.534 140.607 171.025 138.361 171.78 134.889C172.718 130.572 170.269 128.004 166.661 126.244C166.063 125.953 165.432 125.712 164.876 125.353C163.536 124.488 161.486 123.876 162.404 121.707C163.257 119.693 165.227 119.486 167.116 119.936C170.838 120.823 173.664 123.028 175.871 126.137C179.78 131.645 182.03 131.918 187.356 127.789C191.907 124.26 193.661 119.504 192.456 114.091C191.646 110.449 192.727 108.746 195.753 106.95C201.689 103.427 203.797 97.4266 201.535 91.7032C200.945 91.8268 200.298 91.8827 199.71 92.0997C197.463 92.9291 194.828 95.1336 193.012 92.3283C190.912 89.0851 194.702 88.3079 196.394 86.8427C201.64 82.2994 202.656 75.3049 198.637 70.0276C196.894 70.3864 196.071 71.984 194.83 73.0155C190.744 76.4121 186.233 78.7879 180.744 78.3542C177.336 78.0849 174.139 78.044 171.441 80.6767C170.5 81.5951 169.096 82.1421 167.827 81.0407C166.454 79.8484 166.429 78.2465 167.522 77.0254C170.302 73.9188 168.306 71.5112 166.574 69.0764C164.221 65.7688 160.567 65.3326 155.439 64.3623C155.439 83.9154 155.439 102.928 155.443 122.666ZM179.874 71.9033C188.642 71.7544 194.35 67.4156 194.839 60.5277C195.157 56.0494 192.321 50.2317 189.779 50.7628C185.06 51.7488 184.157 55.2234 185.153 59.5758C185.502 61.0973 185.002 62.6438 183.322 63.2668C181.553 63.9229 180.486 62.9208 179.794 61.4045C179.02 59.711 177.882 58.3612 176.456 57.1371C172.947 54.1255 173.425 52.2686 177.962 50.7625C183.818 48.8182 185.768 43.1323 182.242 38.2846C179.316 34.2629 175.694 34.2908 172.849 38.3624C171.306 40.5714 169.567 42.5534 166.959 43.5537C165.246 44.2105 163.617 44.1999 162.537 42.519C161.328 40.638 162.49 39.4532 163.991 38.4264C164.944 37.7749 166.033 37.1895 166.718 36.3078C168.167 34.4425 168.308 32.2443 167.11 30.2303C165.894 28.1851 163.868 27.3705 161.53 27.8478C158.657 28.4342 156.517 30.1761 156.364 33.1585C156.026 39.7841 156.018 46.4272 155.913 53.0638C155.877 55.3358 156.243 57.4771 158.898 58.1647C161.445 58.8243 161.848 56.6335 162.74 55.1319C163.687 53.5366 164.984 52.6127 166.872 53.2889C168.723 53.9519 169.146 55.393 168.977 57.2887C168.293 64.9236 171.358 69.2738 179.874 71.9033Z" fill="#B9A57B"/>
<path d="M124.399 96.3443C121.63 97.7831 120.55 99.4095 122.25 102.122C123.444 104.026 125.444 106.265 122.934 108.309C120.29 110.462 118.895 107.465 117.128 106.221C116.889 106.053 116.517 106.074 115.867 105.935C114.529 108.676 116.468 110.558 117.676 112.533C118.784 114.346 119.911 116.196 117.566 117.702C115.419 119.081 113.691 117.589 112.372 116.071C110.712 114.162 109.846 111.87 109.551 109.271C109.219 106.35 110.132 103.379 107.161 100.668C105.13 98.8157 107.613 96.4036 110.055 96.6299C114.378 97.0306 116.921 95.1298 118.903 91.655C119.802 90.0804 121.548 89.8411 123.237 89.5555C126.03 89.0832 128.789 88.4907 131.038 86.5061C132.353 85.3451 133.989 84.4864 135.371 86.2831C136.76 88.088 135.865 89.8179 134.433 91.1477C131.677 93.7073 127.955 94.4842 124.399 96.3443Z" fill="#B9A57B"/>
<path d="M185.698 108.752C185.382 112.035 184.451 114.631 182.335 116.727C180.996 118.055 179.537 118.547 177.91 117.324C176.371 116.168 176.797 114.807 177.563 113.357C178.756 111.095 180.821 108.993 179.28 106.084C178.888 106.02 178.541 105.856 178.263 105.935C176.263 106.498 174.974 110.235 172.393 107.751C170.138 105.58 172.308 103.442 173.509 101.569C175.316 98.7513 173.868 97.2443 171.504 96.1016C168.518 94.6587 165.394 93.4808 162.489 91.8974C160.393 90.7549 158.342 88.9185 160.005 86.3027C161.769 83.5267 163.743 85.6036 165.441 86.8215C167.078 87.9946 168.766 89.3429 170.757 89.3732C174.711 89.4336 177.317 91.1301 178.979 94.6548C180.137 97.11 182.589 96.487 184.67 96.7955C188.39 97.347 189.203 99.1447 186.549 101.819C184.328 104.056 186.428 106.262 185.698 108.752Z" fill="#B9A57B"/>
</svg>
